<svg xmlns="http://www.w3.org/2000/svg" viewBox="0 0 90.7 51.28"><defs><style>.cls-1{fill:#ee2d69;}.cls-2{fill:#747576;}</style></defs><title>Asset 6</title><g id="Layer_2" data-name="Layer 2"><g id="Calque_1" data-name="Calque 1"><path class="cls-1" d="M16.5,13.79c-4.06,0-7.83,3.66-7.83,14.09,0,8.9,2.65,11.73,7.66,11.73,4.54,0,8.31-3.65,8.31-12.91S20.87,13.79,16.5,13.79M4.66,40.56V4.25c0-1.77-1-2.36-4.66-2.36V.24L8.67,0V17.51h.11A9.2,9.2,0,0,1,17,12.14c7.07,0,11.84,7.2,11.84,14.56S24.11,41.26,16.09,41.26c-4.66,0-6.78-2.94-8.25-2.94-1.06,0-1.65,1.41-1.89,2.24Z"/><path class="cls-1" d="M50.2,21.4c0-5.37-2.36-7.61-6.42-7.61-4.37,0-6.08,3.54-6.08,7.25,0,4.43,1.24,8.14,6.14,8.14S50.2,26,50.2,21.4M43,49.64c7.07,0,11.08-2.48,11.08-6.37,0-3.07-2.59-5.37-9.55-5.37-6.48,0-10.61,1.6-10.61,5.72,0,3.78,3.89,6,9.08,6m.47-18.81a10,10,0,0,1-3.71-.76c-.83.35-2.54,1.23-2.54,2.35,0,1.83,3.72,2.06,6.25,2.06,5,0,14.27.77,14.27,7.55,0,7-8.9,9.25-14.45,9.25-5.07,0-13-1.17-13-7.72,0-3.89,4.54-6,7.72-6.42v-.06c-1.83-.53-4.07-1.36-4.07-3.71,0-2.19,2.3-3.37,4.13-4-3-2.19-4.6-4.84-4.6-8.2,0-5.19,4.36-9,9.9-9a12.33,12.33,0,0,1,5.43.95c.53-2.42,1.59-4.36,4.77-4.36,1.59,0,3.36,1,3.36,2.83a2.24,2.24,0,1,1-4.48.17,2.62,2.62,0,0,1,.3-1.35c-1.54,0-2.18,1.82-2.18,3.12,0,.82.58,1,1.12,1.53a8,8,0,0,1,2.77,6.49c0,6.19-5.49,9.31-11,9.31"/><path class="cls-1" d="M76.53,12.85V14.5h-7v22c0,1.77.94,2.36,5.66,2.36v1.65H59.91V38.91c4.72,0,5.66-.59,5.66-2.36v-22H60.85V12.85h4.72V9.08c0-5.78,3-9.08,9.61-9.08,3.12,0,4.95,2.24,4.95,4.3a2.58,2.58,0,0,1-2.65,2.54,2.55,2.55,0,0,1-2.77-2.59,2,2,0,0,1,1.65-2.13V2a6.43,6.43,0,0,0-2.18-.35c-3.3,0-4.6,2.36-4.6,5.07v6.13Z"/><path class="cls-2" d="M88,14.32a2.14,2.14,0,0,1,2.15,2.14A2.16,2.16,0,0,1,88,18.6a2.1,2.1,0,0,1-2.14-2.14A2.08,2.08,0,0,1,88,14.32M90.7,33.14c-1.63,4.53-3.93,7.43-7,7.43-1.59,0-3.18-1.51-3.18-4,0-3.65,4.69-10.21,4.69-12.86,0-1.2-.36-1.67-1.51-1.67-1.47,0-3.18,1.31-5.32,6.35l-.91-.28C79,24.05,81.09,21,84.15,21c2,0,3.06,1.47,3.06,3.62,0,3.29-4.69,11.31-4.69,13.3a1.64,1.64,0,0,0,1.71,1.67c1.55,0,3.81-1.95,5.68-6.75Z"/></g></g></svg>