<svg xmlns="http://www.w3.org/2000/svg" viewBox="0 0 179.67 36.33"><defs><style>.cls-1{fill:#fff;}.cls-2{fill:#5d8ac7;}.cls-3{fill:none;}.cls-4{fill:#4b7dbd;}.cls-5{fill:#3c6bb2;}.cls-6{fill:#184d84;}.cls-7{fill:#8db9dc;}</style></defs><title>Asset 7</title><g id="Layer_2" data-name="Layer 2"><g id="Calque_1" data-name="Calque 1"><path class="cls-1" d="M98.36,31.54l6.69-27.67h7.41l6.75,27.67h-6l-1.45-6.95h-6.36l-1.44,7Zm7.94-11.15H111l-2.36-11.6Z"/><path class="cls-1" d="M120.07,24.59h4.65v.59a4.37,4.37,0,0,0,.59,2.56,2.32,2.32,0,0,0,2,.78A2.61,2.61,0,0,0,129,28a1.86,1.86,0,0,0,.59-1.51c0-.78-.85-1.7-2.49-2.75a9.71,9.71,0,0,0-1-.59l-.26-.13c-3.81-2.43-5.71-4.79-5.71-7.15a4.9,4.9,0,0,1,1.84-4.2,8.48,8.48,0,0,1,5.38-1.44,7.14,7.14,0,0,1,5.11,1.64,6.43,6.43,0,0,1,1.7,4.85v.46h-4.52v-.46a3.52,3.52,0,0,0-.59-2.23,2.47,2.47,0,0,0-2-.72,2.38,2.38,0,0,0-1.57.53,1.64,1.64,0,0,0-.59,1.31,2.14,2.14,0,0,0,.52,1.37,10.42,10.42,0,0,0,2.3,1.71c.26.2.65.39,1.18.72,3.74,2.3,5.64,4.59,5.64,7a5.16,5.16,0,0,1-1.9,4.26,8.59,8.59,0,0,1-5.38,1.51c-2.43,0-4.26-.52-5.44-1.64s-1.77-2.75-1.77-5v-.85Z"/><path class="cls-1" d="M142.69,23.87v1.38a4.22,4.22,0,0,0,.33,2.09c.19.33.65.46,1.24.46h.53v3.74c-.72.07-1.31.13-1.77.13s-.79.07-1,.07a5.12,5.12,0,0,1-3.6-1q-1-1-1-3.93V14.3h-2V10.69h2V5.05h5.18v5.7h2.17V14.3h-2.17v9.57Z"/><path class="cls-1" d="M146.36,21.11c0-4.19.59-7.08,1.71-8.65s3.21-2.36,6.09-2.36,5,.79,6.17,2.36,1.7,4.46,1.7,8.65-.59,7.09-1.7,8.66-3.21,2.36-6.17,2.36-5-.79-6.09-2.36S146.36,25.31,146.36,21.11Zm5.25-.19v.46c0,3.21.19,5.18.52,5.9a2,2,0,0,0,2,1,2.19,2.19,0,0,0,2.1-1c.33-.65.53-2.42.53-5.24v-2c0-2.76-.2-4.46-.53-5.12a2.08,2.08,0,0,0-2-1,2.14,2.14,0,0,0-2,1c-.4.65-.53,2.16-.53,4.65l-.06,1.38Z"/><path class="cls-1" d="M164.92,31.54V10.75H170v2.1a5.52,5.52,0,0,1,2-2,5.23,5.23,0,0,1,2.68-.66,5.09,5.09,0,0,1,3.74,1.31,5.09,5.09,0,0,1,1.31,3.74V31.61h-5v-14a4.71,4.71,0,0,0-.52-2.55,2.35,2.35,0,0,0-3.55.19A6,6,0,0,0,170,18.3V31.54Z"/><path class="cls-2" d="M42.75,17.71a40.43,40.43,0,0,1,.46-7,10.54,10.54,0,0,1,1.38-3.94,7.44,7.44,0,0,1,3.08-2.68,11.52,11.52,0,0,1,4.72-.92,12,12,0,0,1,4.73.78A7.61,7.61,0,0,1,60.2,6.62a9.24,9.24,0,0,1,1.37,4,46.94,46.94,0,0,1,.46,7,40.58,40.58,0,0,1-.46,7,10.1,10.1,0,0,1-1.37,4,7.51,7.51,0,0,1-3.08,2.68,11.76,11.76,0,0,1-4.73.79,11.71,11.71,0,0,1-4.72-.79,7.44,7.44,0,0,1-3.08-2.68,9.24,9.24,0,0,1-1.38-3.94A41.48,41.48,0,0,1,42.75,17.71Zm5.64,0c0,4.52.27,7.4.86,8.59a3.21,3.21,0,0,0,3.14,1.77,3.12,3.12,0,0,0,3.09-1.71c.59-1.18.85-4.06.85-8.65s-.26-7.48-.85-8.66a3.21,3.21,0,0,0-3.15-1.77,3.21,3.21,0,0,0-3.15,1.77C48.59,10.23,48.39,13.05,48.39,17.71Z"/><path class="cls-2" d="M64.79,31.54V10.75h5v2.1a5.57,5.57,0,0,1,2-2,5.29,5.29,0,0,1,2.69-.66,5.09,5.09,0,0,1,3.74,1.31,5.09,5.09,0,0,1,1.31,3.74V31.61h-5v-14A4.6,4.6,0,0,0,74,15a2.34,2.34,0,0,0-3.54.19,6,6,0,0,0-.59,3.09V31.54Z"/><path class="cls-2" d="M92.33,24.39h4.85v.79c0,2.36-.59,4.13-1.84,5.25s-3.14,1.64-5.77,1.64a10.84,10.84,0,0,1-3.47-.46,5.7,5.7,0,0,1-2.3-1.51,6.58,6.58,0,0,1-1.5-3,30.09,30.09,0,0,1-.46-6.62A26.33,26.33,0,0,1,82.23,15a6.4,6.4,0,0,1,1.31-2.69A6.64,6.64,0,0,1,86,10.69a10.69,10.69,0,0,1,3.68-.53,9.65,9.65,0,0,1,3.54.59,6.38,6.38,0,0,1,2.49,1.77,7.57,7.57,0,0,1,1.18,2.63,24.27,24.27,0,0,1,.33,5v1.57H87.08c0,.13-.06.33-.06.53v.85a10,10,0,0,0,.59,4.13,2,2,0,0,0,2,1.18,2.12,2.12,0,0,0,2-1A4.36,4.36,0,0,0,92.33,24.39Zm-5.18-5.9h5v-.85a5.16,5.16,0,0,0-.59-3,2.29,2.29,0,0,0-2-.79,2.16,2.16,0,0,0-2,.85,5.34,5.34,0,0,0-.59,3A1.93,1.93,0,0,1,87.15,18.49Z"/><polygon class="cls-3" points="18.1 7.8 8.92 23.48 27.08 23.48 18.1 7.8"/><polygon class="cls-4" points="18.1 7.8 8.92 2.49 8.92 12.92 18.1 7.8"/><path class="cls-2" d="M18.1,0h0A17.6,17.6,0,0,0,9.77,2l-.85.46L18.1,7.8Z"/><path class="cls-5" d="M27.08,2.49,26.23,2A17.29,17.29,0,0,0,18,0V7.8Z"/><polygon class="cls-6" points="27.08 12.92 27.08 2.49 18.1 7.8 27.08 12.92"/><path class="cls-5" d="M33.71,9.25a17.76,17.76,0,0,0-6-6.43l-.59-.33V13Z"/><path class="cls-2" d="M36,18.1a18.35,18.35,0,0,0-2.29-8.85L27.08,13Z"/><path class="cls-5" d="M36,18.1,27.08,13v10.5L36,18.23V18.1Z"/><path class="cls-7" d="M33.64,27.08a18.59,18.59,0,0,0,2.29-8.92L27,23.41Z"/><path class="cls-2" d="M27.08,33.84l.59-.4a18.39,18.39,0,0,0,6-6.36l-6.56-3.67V33.84Z"/><polygon class="cls-4" points="18.1 28.52 27.08 33.84 27.08 23.48 18.1 28.52"/><path class="cls-2" d="M18.1,36.33a17.69,17.69,0,0,0,8.13-2l.92-.46-9-5.31Z"/><path class="cls-5" d="M8.92,33.84l.92.46a17.22,17.22,0,0,0,8.19,2h.07V28.52Z"/><polygon class="cls-6" points="8.92 23.48 8.92 33.84 18.1 28.52 8.92 23.48"/><path class="cls-5" d="M2.36,27.15a18.1,18.1,0,0,0,6,6.36l.46.33V23.48Z"/><path class="cls-2" d="M0,18.16H0a18.41,18.41,0,0,0,2.36,9.05l6.56-3.73Z"/><polygon class="cls-5" points="0 18.16 0 18.16 8.92 23.48 8.92 12.92 0 18.16"/><path class="cls-7" d="M2.36,9.18a18.14,18.14,0,0,0-2.36,9L8.92,13Z"/><path class="cls-2" d="M8.92,2.49l-.46.26a17.42,17.42,0,0,0-6.1,6.43L8.92,13Z"/><polygon class="cls-2" points="8.92 12.92 8.92 23.48 18.1 7.8 8.92 12.92"/><polygon class="cls-2" points="27.08 23.48 8.92 23.48 18.1 28.52 27.08 23.48"/><polygon class="cls-2" points="27.08 23.48 27.08 12.92 18.1 7.8 27.08 23.48"/></g></g></svg>