<svg xmlns="http://www.w3.org/2000/svg" viewBox="0 0 297.54 115.01"><defs><style>.cls-1,.cls-2,.cls-3{fill:#fff;}.cls-2{fill-rule:evenodd;}.cls-3{font-size:15.27px;font-family:Lato-Black, Lato Black;font-weight:800;}.cls-4{letter-spacing:0.01em;}.cls-5{letter-spacing:0em;}.cls-6{letter-spacing:-0.01em;}.cls-7{letter-spacing:0em;}.cls-8{letter-spacing:0em;}.cls-9{letter-spacing:-0.01em;}.cls-10{letter-spacing:0em;}.cls-11{letter-spacing:-0.01em;}.cls-12{letter-spacing:-0.01em;}.cls-13{letter-spacing:-0.01em;}.cls-14{letter-spacing:0em;}</style></defs><title>Asset 4</title><g id="Layer_2" data-name="Layer 2"><g id="Calque_1" data-name="Calque 1"><path class="cls-1" d="M98.94,2.8a1.9,1.9,0,0,1,1.9-1.9h23.33C136,.9,145.7,9,145.7,19.52c0,7.71-6.91,13.32-11.61,15.82,5.3,2.2,13.41,7.11,13.41,16.32,0,11.22-9.91,19.33-21.83,19.33H100.84a1.91,1.91,0,0,1-1.9-1.91Zm23.43,26.54a7.14,7.14,0,0,0,7-7.21,6.79,6.79,0,0,0-7-6.81h-7.81v14Zm1.3,27.33a7.27,7.27,0,0,0,7.21-7.31c0-4-4.3-7-8.21-7h-8.11V56.67Z"/><path class="cls-1" d="M191.16,0a38.6,38.6,0,0,1,24.42,9.41,1.75,1.75,0,0,1,.21,2.7l-7.91,8.41a2.11,2.11,0,0,1-2.71.1,18.41,18.41,0,0,0-13.11-4.8c-10.92,0-19.73,9.21-19.73,20.22A20,20,0,0,0,192.16,56a23.72,23.72,0,0,0,8.91-1.6V48.56h-6.31a1.82,1.82,0,0,1-1.9-1.8V36.84a1.84,1.84,0,0,1,1.9-1.9h20.12a1.89,1.89,0,0,1,1.81,1.9l.1,26.94a2.47,2.47,0,0,1-.8,1.6,50.61,50.61,0,0,1-24.83,6.51,35.95,35.95,0,1,1,0-71.89Z"/><path class="cls-1" d="M230.51,2.8a1.9,1.9,0,0,1,1.9-1.9h41.45a1.9,1.9,0,0,1,1.9,1.9V13.72a1.9,1.9,0,0,1-1.9,1.9H246.12V30H269a2,2,0,0,1,1.9,1.9V42.85a2,2,0,0,1-1.9,1.9H246.12V69.08a2,2,0,0,1-1.9,1.91H232.41a1.91,1.91,0,0,1-1.9-1.91Z"/><path class="cls-1" d="M282.17,32.84a1.9,1.9,0,0,1,1.9-1.9h11a1.9,1.9,0,0,1,1.9,1.9V69.08a2,2,0,0,1-1.9,1.91h-11a2,2,0,0,1-1.9-1.91Z"/><path class="cls-1" d="M281.62,8.91a8,8,0,0,1,7.91-8,8,8,0,0,1,8,8,8,8,0,0,1-8,7.91A7.86,7.86,0,0,1,281.62,8.91Z"/><path class="cls-2" d="M30.5,14.45a5.14,5.14,0,1,1-4.4,7.8,3,3,0,0,0-2.56-1.44H19.25a2.94,2.94,0,0,0-2.75,1.84A8.6,8.6,0,0,1,5.17,27.48,7.94,7.94,0,0,1,.61,22.87,8.56,8.56,0,1,1,16.5,16.52a3,3,0,0,0,2.78,1.86h4.26a3,3,0,0,0,2.56-1.45A5.12,5.12,0,0,1,30.5,14.45Z"/><path class="cls-2" d="M31.38,10.58a5.16,5.16,0,0,0,6.36-6.35A5,5,0,0,0,34.18.67,5.16,5.16,0,0,0,27.83,7,5,5,0,0,0,31.38,10.58Z"/><path class="cls-2" d="M51.86,41.1a5.15,5.15,0,1,1-4.59-7.72,3,3,0,0,0,2.54-1.46L52,28.19a3,3,0,0,0-.24-3.33,8.61,8.61,0,0,1,1.52-12.23A8,8,0,0,1,59.53,11a8.56,8.56,0,1,1-2.46,16.94,3,3,0,0,0-3,1.48L51.94,33.1a3,3,0,0,0,0,2.94A5.16,5.16,0,0,1,51.86,41.1Z"/><path class="cls-2" d="M63.48,48.14a5.18,5.18,0,0,1-9.23,2.48,4.76,4.76,0,0,1-1-3.79,5.18,5.18,0,0,1,9.23-2.48A4.81,4.81,0,0,1,63.48,48.14Z"/><path class="cls-2" d="M18.16,46.42a5.14,5.14,0,1,1,9-.12,3,3,0,0,0,0,2.93L29.28,53a3,3,0,0,0,3,1.47,8.59,8.59,0,0,1,9.82,7.41,7.94,7.94,0,0,1-1.72,6.25A8.55,8.55,0,1,1,27,57.51a3,3,0,0,0,.22-3.34L25,50.48A3,3,0,0,0,22.51,49,5.15,5.15,0,0,1,18.16,46.42Z"/><path class="cls-2" d="M6.24,53a5.18,5.18,0,0,1,2.48-9.23,4.8,4.8,0,0,1,3.79,1A5.18,5.18,0,0,1,10,54,4.77,4.77,0,0,1,6.24,53Z"/><text class="cls-3" transform="translate(0 111.19)"><tspan class="cls-4">I</tspan><tspan class="cls-5" x="3.8" y="0">nn</tspan><tspan class="cls-6" x="20.75" y="0">o</tspan><tspan class="cls-7" x="29.03" y="0">va</tspan><tspan class="cls-8" x="43.61" y="0">ti</tspan><tspan class="cls-9" x="52.24" y="0">v</tspan><tspan x="59.43" y="0">e </tspan><tspan class="cls-10" x="70.32" y="0">A</tspan><tspan x="79.62" y="0">nalytics </tspan><tspan class="cls-11" x="131" y="0">t</tspan><tspan x="135.96" y="0">o emp</tspan><tspan class="cls-12" x="176.66" y="0">o</tspan><tspan class="cls-9" x="184.94" y="0">w</tspan><tspan x="196.02" y="0">er Busines</tspan><tspan class="cls-13" x="260.39" y="0">s</tspan><tspan class="cls-14" x="266.26" y="0">.</tspan></text></g></g></svg>